<svg width="16" height="18" viewBox="0 0 16 18" fill="none" xmlns="http://www.w3.org/2000/svg">
<path d="M15.9232 16.1065C15.793 15.6621 13.6732 7.72638 13.3848 6.64644C13.0976 5.56702 12.3466 5.27838 11.5007 5.27838C11.209 5.27838 10.084 5.27838 8.7431 5.27838V4.28109C13.872 3.80376 15.2399 0 15.2399 0H0.419873C0.419873 0 1.56685 4.01798 7.05123 4.30307V5.27782C5.80345 5.27782 4.77595 5.27782 4.49913 5.27782C3.65317 5.27782 2.90281 5.56645 2.61469 6.64592C2.32681 7.72586 0.207261 15.6615 0.0768185 16.106C-0.085773 16.663 -0.035232 17.3903 1.09823 17.3903C1.22323 17.3903 1.50667 17.3903 1.90764 17.3903V18H13.9533V17.3908C14.4235 17.3908 14.7624 17.3908 14.9004 17.3908C16.0353 17.3908 16.0858 16.6635 15.9232 16.1065ZM8.00016 6.30887C10.7772 6.30887 13.0272 8.55778 13.0272 11.3346C13.0272 14.1113 10.7772 16.3608 8.00016 16.3608C5.2242 16.3608 2.97415 14.1114 2.97415 11.3346C2.97415 8.55773 5.22415 6.30887 8.00016 6.30887Z" fill="#337D5A"/>
<path d="M5.11459 9.12252L4.59878 8.75531L4.44635 8.96901L4.95474 9.3296C5.00197 9.25703 5.06045 9.19226 5.11459 9.12252Z" fill="#337D5A"/>
<path d="M6.53315 7.99638L6.25193 7.42786L6.0163 7.54487L6.30299 8.12195C6.3802 8.08096 6.45325 8.03265 6.53315 7.99638Z" fill="#337D5A"/>
<path d="M4.34997 11.3346C4.34997 11.3049 4.35848 11.2781 4.35957 11.249H3.7196V11.511H4.36808C4.3659 11.4511 4.34997 11.3951 4.34997 11.3346Z" fill="#337D5A"/>
<path d="M11.9445 9.41088L11.8187 9.18176L11.1612 9.5416C11.203 9.6163 11.2475 9.69322 11.2859 9.77067L11.9445 9.41088Z" fill="#337D5A"/>
<path d="M10.418 7.72094L10.1927 7.58582L9.82852 8.19226C9.90379 8.23675 9.9845 8.27216 10.0581 8.32109L10.418 7.72094Z" fill="#337D5A"/>
<path d="M8.19651 7.70474V7.03125H7.9342V7.69098C7.95619 7.69098 7.97761 7.68493 7.99959 7.68493C8.06767 7.68493 8.13003 7.70114 8.19651 7.70474Z" fill="#337D5A"/>
<path d="M10.1158 15.216L9.76542 14.5096C9.68958 14.553 9.61436 14.5997 9.53522 14.636L9.87964 15.3325L10.1158 15.216Z" fill="#337D5A"/>
<path d="M11.6858 13.7911L11.0469 13.3374C10.9997 13.411 10.9403 13.4758 10.8876 13.5445L11.5331 14.0043L11.6858 13.7911Z" fill="#337D5A"/>
<path d="M11.6507 11.3346C11.6507 11.3945 11.6363 11.4511 11.6336 11.5104H12.4136V11.2484H11.6429C11.6424 11.2786 11.6507 11.3049 11.6507 11.3346Z" fill="#337D5A"/>
<path d="M7.9342 14.9782V15.7258H8.19651V14.9644C8.13003 14.9677 8.06767 14.9842 7.99959 14.9842C7.97761 14.9842 7.95619 14.9782 7.9342 14.9782Z" fill="#337D5A"/>
<path d="M4.78143 13.0198L4.18567 13.3439L4.31176 13.5736L4.9053 13.2506C4.86024 13.1753 4.82152 13.0979 4.78143 13.0198Z" fill="#337D5A"/>
<path d="M6.31154 14.552C6.23325 14.5107 6.15496 14.4712 6.08026 14.4261L5.71356 15.0359L5.93851 15.171L6.31154 14.552Z" fill="#337D5A"/>
<path d="M6.46124 13.89L6.66312 14.0043L7.92764 11.8889C7.97926 11.9004 8.02711 11.9202 8.08176 11.9202C8.52609 11.9202 8.88541 11.5604 8.88541 11.1171C8.88541 10.6732 8.52609 10.3135 8.08176 10.3135C7.639 10.3135 7.27893 10.6732 7.27893 11.1171C7.27893 11.3709 7.40393 11.5873 7.58794 11.7356L6.46124 13.89ZM8.08224 10.8874C8.21055 10.8874 8.31296 10.9908 8.31296 11.1171C8.31296 11.244 8.20998 11.3477 8.08224 11.3477C7.95511 11.3477 7.85317 11.244 7.85317 11.1171C7.85317 10.9907 7.95511 10.8874 8.08224 10.8874Z" fill="#337D5A"/>
</svg>
